# xmcd CD database file
#
# Track frame offsets:
#	150
#	21607
#	52171
#	79117
#	102523
#	117760
#	151064
#	182751
#
# Disc length: 2907 seconds
#
# Revision: 0
# Processed by: cddbd v1.5.2PL0 Copyright (c) Steve Scherf et al.
# Submitted via: CDex 1.70beta2
#
DISCID=650b5908
DTITLE=Villiez and Starke - Villiez and Starke
DYEAR=2004
DGENRE=Jazz
TTITLE0=La Puntilanada
TTITLE1=Satin Doll
TTITLE2=Cinema Paradiso
TTITLE3=Windmills of your mind
TTITLE4=In a sentimental mood
TTITLE5=Spain
TTITLE6=Chant
TTITLE7=Satin Doll (alternate take)
EXTD=YEAR: 2004
EXTT0=
EXTT1=
EXTT2=
EXTT3=
EXTT4=
EXTT5=
EXTT6=
EXTT7=
PLAYORDER=
